<?xml version="1.0" encoding="UTF-8"?>
<!DOCTYPE svg PUBLIC "-//W3C//DTD SVG 1.1//EN" "http://www.w3.org/Graphics/SVG/1.1/DTD/svg11.dtd">
<svg version="1.1" xmlns="http://www.w3.org/2000/svg" xmlns:xlink="http://www.w3.org/1999/xlink" x="0px" y="0px" viewBox="0 0 300 256" enable-background="new 0 0 300 256" xml:space="preserve">
<g id="gbLogo" title="ghostbusters logo">
	<g>
		<path fill="#FFFFFF" d="M292.7,132.8c-1.1-0.5-4.9-1.4-11.4-2.7c0,0.1-11.3-2.1-11.3-2.1l-0.5-0.1l-0.2,0.5c0,0.1-0.4,1.4-0.1,2.7    c0.1,0.6,0.4,1.3,1,1.7c-0.6-0.4-1.4-1.1-1.6-2.4c-0.1-0.4-0.1-1,0-1.5c1.1-5.2,4.5-10.2,10.6-15.2c0-0.1,4.3-3.4,4.3-3.4l2-1.5    c1.5-1.2,2.3-3,2-4.4c-0.1-0.3-0.2-0.6-0.4-0.9c-0.6-1.1-3-3.1-10.9,0.2c-1.2,0.6-2.6,1.3-4,2c-5.8,3.1-9.5,5.3-12.1,6.8    c-4,2.3-5.9,3.4-9.6,4.8c-0.4,0.1-0.7,0.2-1.1,0.3c0.2-0.2,0.3-0.5,0.3-0.7c0-0.1,0-0.1,0-0.2c-0.1-0.7-1.1-1-1.9-1.2    c-1.7-0.4-3.7,0.1-5.8,0.7l-2,0.5v0c-0.3,0-0.5-0.1-0.7-0.1c0,0,0,0-0.1,0c0.3-0.4,0.5-0.7,0.5-1.1c0,0,0-0.1,0-0.2    c-0.2-1.1-2.2-3.1-3.4-4.3L211,85.3l-0.1,0c-16-9.7-26.2-9-34.5-8.5L174,77l0,0.6c0.3,3.4-0.2,6.6-1.5,9.7    c-2.8,6.9-5.3,10.1-7.1,11.6c2-2.6,4.1-6.3,6.2-11.1c2.2-5,2.4-9.6,1.5-14c-1.1-5.4-3.8-10.2-6.7-14.6l-1-1.4    c-2.2-3.3-3.4-6-3.9-8.9c-0.6-3.1-0.5-6.4-0.4-10.4l0.1-2.4c0-1-0.1-1.9-0.3-2.8c-1.1-5.6-5.6-9.9-5.9-10.1    c-0.2-0.3-0.4-0.5-0.6-0.8c1,0.7,2.3,1.8,3.5,3.2l0.4,0.5l0.4-0.6c0.6-0.7,2-2.2,3-2.9c1.2-0.8,3.8-1.1,6.5-1.3l2.1-0.2    c3.4-0.3,5.6-2.2,6.5-5.4c0.7-2.4-0.3-3.7-1.5-4.1c-1-0.3-2.8,0.5-5.3,2l-0.5,0.3c-0.3,0.2-0.5,0.4-0.5,0.7c0,0.1,0,0.2,0,0.3    c0.1,0.3,0.3,0.6,0.7,1c-5-2.1-6.4-4.8-8.2-8.2l-1.3-2.4c-2.6-4.4-6.9-4.1-11.2-3.1c-4.7,1.1-13.1,7.1-14.2,8.2    c-0.5,0.5-0.6,1-0.5,1.3c0,0,0,0.1,0,0.1c0.2,0.7,0.9,1.1,1.3,1.3c-1.2,0.1-2.5,0.3-3.8,0.5c-2.7,0.5-5.4,1.2-7.9,2.2    c-5,2-7.7,4.4-8.3,5.1c-2.9,2.9-5.4,7.1-7.6,12.8c-0.6,1.5-1.2,3.2-1.8,5c-2.9,9.3-7,14.5-12.9,21.4c-6.2,7.2-8.7,15.2-7.1,22.9    c1.1,5.7,5,11.6,8.1,15.7c-0.1,0.1-0.1,0.1-0.1,0.2c-0.1-0.1-0.5-0.6-0.5-0.6l-0.4,0.1c-2,0.8-7.3,4.3-10.2,9.7    c-3.5,6.6-6.4,10.1-14.2,17.1c-3.3,2.9-6.3,5.5-8.8,7.5c-2.1,1.7-3.7,3-4.8,4.1l-0.7,0.6c0,0,2,0.7,3.1,1.1    c-1-0.1-2.1-0.2-3.3-0.4c-2.5-0.6-4.4-1.4-4.4-1.4c0,0-4-1.7-4-1.7c-4.8-2.1-12.6-5.5-22.5-10.2c-10.9-5.2-18.1-4.2-20.6-2.8    c-0.8,0.5-1.3,1-1.4,1.6c0,0.2,0,0.4,0,0.6c0.3,1.6,2.7,2.8,6.4,4.1c5.6,2,9.9,5.7,10.9,7.1c0.1,0.2,0.3,0.5,0.5,0.8    c0,0-0.1-0.1-0.1-0.1l-0.2-0.1l-0.3-0.3c-0.4-0.5-1-0.8-1.6-0.9c-1.7-0.2-3.5,1.3-3.7,1.5c0,0-3.8,2.8-3.8,2.8l-1.5,1.2    c-3.1,2.3-5.9,4.3-5.5,6.4c0.1,0.2,0.1,0.5,0.3,0.7c1.3,2.4,3.5,2,7.5,1.3l4.2-0.7c5.5-0.8,8.4,2,9.6,3.4    c-0.2-0.1-0.4-0.2-0.6-0.4c-1.3-0.9-2.4-1.3-3.4-1.2c-0.6,0.1-1.2,0.5-1.6,1.1c-0.2,0.3-0.2,0.7-0.3,1.1c-0.1,0.8-0.1,1.7-1.3,2.3    c-2.2,1.2-4.2,4.6-4.3,4.7c-0.8,1.6-0.9,2.8-0.2,3.6c1.3,1.5,4.7,1,6.5,0.4l2.7-0.9c1.3-0.4,2.4-0.8,3.2-1c1-0.2,1.2-0.7,1.2-1    c0-0.1,0-0.2,0-0.3c-0.1-0.5-0.6-1.1-1.5-1.5c0.6,0.2,1.5,0.5,2.3,0.9c7.4,5,12.2,6,14.2,6.4l0.7,0.2c1.1,0.3,1.5-0.2,1.7-0.4    c0.2-0.3,0.3-0.7,0.2-1.1c-0.1-0.2-0.2-0.4-0.3-0.7c1.1,0.6,3.3,2.1,5.4,3.6c1.7,1.3,3,2.5,3.8,3.3c2.3,2.5,5.3,5.3,5.3,5.3    c2.6,2.3,5.8,2.6,8.7,0.9c1.1-0.6,1.3-1.5,1.1-2.6c-0.3-1.4-1.3-3.2-2.5-5.3l-0.1-0.2c-0.6-1-0.9-1.8-1-2.5    c-0.2-0.8-0.1-1.5,0.1-2c-0.1,0.3-0.1,0.6-0.1,0.9c0,0.1,0.1,0.2,0.1,0.3c0.1,0.3,0.4,0.7,1.2,0.6c1.8-0.2,9-2.9,14.7-6.8l5-3.5    l0.7-0.5c1.9-1.4,3.6-2.5,6.5-4.2c2.1-1.2,4.7-2.1,7.9-2.7c0,0,0.5-0.1,1.1-0.2c0,0.1,0.3,0.6,0.3,0.6    c9.3,17.6,22.7,30.4,39.7,38.1c-0.1,0.1-0.1,0.2-0.2,0.3c-0.5-0.2-2.4-1.1-2.4-1.1l-0.3,0.5c-1.8,3.2-8.4,14-17.6,19.3l-0.8,0.5    l0.8,0.5c17.4,11,38.2,14.9,58.4,10.8c31.3-6.2,56-30.5,62.7-61.7h0v-0.2c0.3-1.3,0.3-2.1,0.2-2.4c0-0.1,0-0.2-0.1-0.2    c0,0-0.1-0.1-0.1-0.2c0,0,0.6-0.1,0.6-0.1h0c2.2-0.5,3.9-1.2,4.7-1.6c0,0,0,0,0,0l0.1,0l0.1-0.1l0.6-0.3l-0.1,0.1l2.1-1    c5.4-2.8,10.2-0.7,13.2,1.6c4.1,3,12.4,7.2,12.8,7.4c1.1,0.4,2,0.7,2.9,0.8c1.8,0.3,3,0,3.8-0.8c0.5-0.5,1-1.5,0.6-3.3    c-0.1-0.5-0.5-1.4-2.9-3.7c-1.6-1.6-3.6-3.2-4.9-4.3l-1.3-1.1l-0.5-0.5c-0.9-0.9-1.8-1.8-3.3-1.9c2.6-1.8,5.9-2.4,10.4-2.1    c1.7,0.1,3.4,0.4,4.8,0.6l2.6,0.4c4.9,0.5,8.8-1.1,9.4-4c0.1-0.5,0.1-0.9,0-1.4C297.8,135.9,296,134.2,292.7,132.8 M242.6,152.2    L242.6,152.2C242.6,152.2,242.6,152.2,242.6,152.2z M243,152.3C243,152.3,243,152.3,243,152.3C243.1,152.3,243.1,152.3,243,152.3    L243,152.3z"/>
		<path fill="#FF0000" d="M161.7,22.2c-1.1,0.8-2.5,2.2-3.1,3c-2-2.3-4.3-3.8-5-4.3c-0.1,0-0.2,0-0.4,0c0,0.6,1.6,2.6,1.6,2.6    s6.1,5.7,5.9,12.4c-0.2,9.2-1,14.2,4.4,22c0.3,0.5,0.6,0.9,1,1.4c34.3,0.8,64.8,23.8,74.5,57.5c2.6-0.6,5-1.5,7-1    c2,0.4,2.7,1.2-2.6,2.6c0,0,2.6,0.2,5.7-0.9c6.3-2.3,7.4-3.8,21.8-11.5c1.5-0.8,2.8-1.4,4-2C262,56.3,218.9,23.3,170.3,20.6    C166.7,21,163.3,21.1,161.7,22.2"/>
		<path fill="#FF0000" d="M267.9,128.7c-0.7,3.5,2.6,4.9,2.6,4.9s0.9-0.4,0.1-1.2c-2.1-2-0.8-3.9-0.8-3.9s5.6,1,11.3,2.2    c-0.3-5.1-1-10.3-2-15.5c-0.1-0.7-0.3-1.3-0.4-2C274.2,116.9,269.3,122,267.9,128.7"/>
		<path fill="#FF0000" d="M269.6,144.3c0,0-0.8,0.5,1,0.3c1.7-0.2,2.7,1.2,3.8,2.2c0.7,0.6,3.8,3.2,6.2,5.5    c0.4-3.6,0.7-7.2,0.8-10.9C277.4,141.1,273,141.4,269.6,144.3"/>
		<path fill="#FF0000" d="M54.6,138.8L54.6,138.8C54.6,138.9,54.7,138.9,54.6,138.8c1.6,0.4,3.5,0.6,5.2,0.4c0,0,1.5-0.1,0.4-0.4    c0,0-1.5-0.5-4.2-1.5c2.4-2.3,7.6-6.2,13.6-11.6c8-7.2,10.9-10.8,14.3-17.3c2.9-5.5,8.3-8.8,9.9-9.4c0.3,0.3,0.5,0.6,0.8,0.9    c0.2-0.4,0.5-0.8,0.7-1.2C92,94.4,88.3,88.6,87.1,83c-1.6-8.2,1.4-15.9,7-22.4c5.6-6.5,10-12,13-21.6c0.6-1.8,1.1-3.4,1.7-4.9    c-37.6,19.8-62,58.8-62.8,101.6c2.6,1.1,4,1.7,4,1.7S52,138.2,54.6,138.8"/>
		<path fill="#FF0000" d="M276.8,158.3c0,0-8.6-4.3-12.7-7.3c-4.1-3-8.9-4.2-13.8-1.6c-0.9,0.5-1.8,0.9-2.8,1.3l-5.2,2l-0.3,2.4    c-2.1,10.1-6.1,19.7-11.8,28.1c-11.3,16.9-29.1,29.6-50.7,33.9c-20.8,4.2-41.4-0.2-58-10.7c-17.8-11.2-31.1-29.3-35.6-51.5    c-1.5,1.1-3.2,2.3-5.7,4c-5.9,3.9-12.9,6.6-14.4,6.7c-1.5,0.1-0.3-2.2,0.3-2.9c0,0,0.4-2.3-0.9-0.7c-1.2,1.6-2.4,3.5-0.3,7.3    c2.2,3.8,3.6,6.3,1.8,7.4c-3,1.8-5.9,1-8-0.9c0,0-3-2.7-5.3-5.3c-0.9-0.9-2.3-2.2-3.8-3.4c15.3,60.3,75.3,98.7,137,86.4    c48.8-9.7,84.5-48.3,92.8-94.4C278.7,159,277.8,158.7,276.8,158.3"/>
		<path d="M299.1,135.6c-2.7-3.2-4.4-3.7-10.1-5.2l-0.7-0.2c-1.4-0.4-4.9-1-8.5-1.7c-3.8-0.7-8.5-1.5-9.4-1.9    c0.6-1.2,3.9-7.8,10.1-12.2c6.1-4.3,8.7-7.1,9-9.5c0.1-0.4,0-0.8-0.1-1.2c-0.1-0.6-0.5-1.3-1-1.9c-0.9-1.1-3.5-4.2-18.1,3.5    c-3.1,1.6-6.3,3.4-9.1,5.1c-4.1,2.3-7.6,4.4-9.6,5.1c-0.6-0.5-3.3-2.1-8.8-0.7c0,0-1.6,0.4-1.9,0.5c-0.4-0.8-2-4-2.9-4.9l-0.2-0.2    l-2.5,1.2l0.3,0.3c1.5,1.5,3.2,3.4,3.2,3.9c0,0.2-0.1,0.4-0.4,0.7c-0.5,0.4-1.4,0.7-2,0.6c-0.2,0-0.7-0.1-0.9,0.3l-0.1,0.1    l0.1,0.2c0.4,0.6,2.3,0.3,3.1,0.2c1.2-0.2,2.4-0.5,3.5-0.8c2-0.5,3.9-1,5.4-0.7c1.1,0.2,1.2,0.5,1.2,0.5c0,0-0.1,0.6-3.9,1.6    l0.1,0.6c0.1,0,2.7,0.2,5.8-0.9c3.8-1.4,5.6-2.5,9.7-4.8c2.7-1.5,6.3-3.6,12.1-6.8c8.4-4.5,12.6-4.3,13.8-2.6    c0.7,1.2,0.2,3.1-1.4,4.3l-2,1.5c-4.7,3.5-13.4,9.9-15.3,19.1c-0.7,3.7,2.7,5.2,2.7,5.2l0.1,0l0.1,0c0.1,0,0.5-0.2,0.6-0.7    c0-0.1,0-0.2,0-0.4c-0.1-0.2-0.2-0.5-0.4-0.7c-0.5-0.6-0.8-1.2-0.9-1.7c-0.1-0.7,0-1.2,0.1-1.4c2.1,0.4,19.9,3.5,22.3,4.6    c3,1.3,4.7,2.7,5,4.2c0.1,0.4,0.1,0.7,0,1.1c-0.5,2.4-4,3.8-8.4,3.4l-2.6-0.4c-4.7-0.8-11.9-2-16.9,2.2c-0.2,0.2-0.3,0.4-0.3,0.6    c0.1,0.3,0.5,0.4,1.4,0.3c1.3-0.1,2.1,0.7,3,1.6l0.5,0.5l1.3,1.1c2.2,1.8,7.3,6.2,7.6,7.6c0.2,0.9-0.1,1.7-0.7,2.2    c-1.1,0.9-3.2,0.9-5.4-0.1c-0.1,0-8.6-4.3-12.6-7.2c-4.7-3.5-9.5-4-14.1-1.7c-4.9,2.6-11.1,4.4-13.8,2c0,0,0,0-0.1-0.1    c0.4-0.4,1.5-1.2,3.9-1.5c1.1-0.1,1.7-0.3,1.9-0.7c0.1-0.2,0.1-0.4-0.1-0.6c-0.4-0.4-1.4-0.6-2.2-0.4l-0.5,0.2    c-1.7,0.5-4.8,1.5-10.6,4.5c-7,3.7-11.5,4.6-13.7,2.8c-2.4-2-2.7-4.9,2.9-13c4.6-6.6,3.9-8,2.5-9.2l-0.4-0.4    c-0.5-0.5-0.8-0.8-1.1-0.6c-0.2,0.1-0.2,0.4-0.2,0.7c0,0.1,0.1,0.2,0.1,0.3l0.1,0.3c0.1,0.7,0.2,2.5-0.5,3.5    c-1.1-0.6-5.5-3-9.5-8.7c-1.8-2.6-2.5-3-3-2.7c-0.4,0.2-0.4,1-0.2,2c0.1,0.7,0.4,1.4,0.6,2.1l0,0.1l0,0.1    c0.3,0.3,6.3,7.5,11.1,9.4c-0.8,1.2-3.7,5.3-5.7,9.1c-0.9,1.7-1.1,3.5-0.8,5c0.1,0.7,0.4,1.4,0.8,2c1.3,2,3.7,3.1,6.9,3    c4.5-0.1,8.7-2.5,11.5-4.1c1.4-0.8,2.7-1.5,3.1-1.4c0.4,0.1,0.7,0.3,1.2,0.6c1.2,0.7,2.9,1.7,6.5,1.3c4.5-0.6,6.8-1.6,9.9-3    l0.9-0.4c4.2-1.8,5.5-1.9,12.1,1.9c0.3,0.2,8.1,6.1,13.5,7.5c2.9,0.8,5.9,0.2,7.3-1.6c0.6-0.8,0.9-1.8,0.6-2.8    c-0.1-0.5-0.3-1.1-0.6-1.6c-0.7-1.3-2.7-3.1-4.8-5c-2.1-2-4.3-4-5.2-5.5c1-0.4,5-1.6,13.1,0.1c6.1,1.3,10-1.1,11.4-3.5    c0.7-1.1,0.9-2.3,0.7-3.4C299.8,136.7,299.5,136.1,299.1,135.6"/>
		<path d="M133.4,84.3c0.3,3.7-1.2,6.9-3.4,7.1c-2.2,0.2-4.3-2.7-4.6-6.4c-0.3-3.7,1.2-6.9,3.4-7.1C131,77.8,133.1,80.6,133.4,84.3"/>
		<path d="M133.7,62.8c0,0,0.5-1.1,0.9,0.1c0.8,2.1-3.4,8.3-8.1,1.5c-1-1.4,0.9,0.1,2.2,0.6C129.6,65.4,132.6,65.5,133.7,62.8"/>
		<path d="M135.2,99.6c0,0,0.4-1.6,0.9-0.4c0.8,2.1-3.8,8.7-10.3,2.1c-1.2-1.2,0.9,0.1,2.2,0.7C128.9,102.3,134.1,102.3,135.2,99.6"/>
		<path d="M144.3,42.9c0.5,0-0.9-5.6-3.9-3.9c-3,1.7-2.4,6-2.2,7c0.2,1.1,1.1,1.4,1.8,1.5c0.7,0.1,2.7,0.2,2.5-1.3    c-0.2-1.5-0.3-3.5,0.2-3.7C143.2,42.3,143.8,42.9,144.3,42.9"/>
		<path d="M125.9,41.1c0.5,0.3-0.4-4.3-3.6-3.3c-3.1,0.9-3.1,4.7-2.7,6.1c0.7,2.2,1.5,3.2,3,3.1c1.8-0.1,2.3-1,2.2-2.7    c-0.2-1.6-2.1-3.5-1.3-3.8C124.3,40.1,125.4,40.8,125.9,41.1"/>
		<path d="M123.6,28.2c0,0,1-1.6-1.8,0.2c-2.7,1.8-4.3,5.4-3.9,6c0.4,0.6,1.8,0.5,2-0.4c0.2-0.9,0.4-2.3,1.1-3.2    C121.9,29.7,123.6,28.2,123.6,28.2"/>
		<path d="M145.6,32.8c0,0,2.3,2.4,0.3-1.2c-2-3.7-4.4-5-5.5-4.1c-1.2,0.9,0.2,1.6,1.1,1.8C142.3,29.6,144.1,31.1,145.6,32.8"/>
		<path d="M69.6,176.3c0.2-0.6,0.2-1.3,0-2c-0.2-0.7-0.5-1.5-0.9-2.2c-1.4-2.2-2.1-3.9-2.3-4.6c1.8-0.4,10.6-2.7,18.5-9.3    c6-5.1,11.8-7.5,15.6-8.6c2.3,4.5,13.6,25.1,37.1,36.8c-5.1,10.9-15.6,17.2-18.2,18.7c0.8,0.5,1.5,1,2.3,1.5    c0.1,0.1,0.2,0.1,0.3,0.2c9.1-5.3,15.7-15.8,17.7-19.4c9.6,4.4,20,6.9,31,7.2c2.9-0.1,2.9-0.3,2.9-0.6c0,0,0-0.1,0-0.1    c-0.1-0.3-0.5-0.4-3-0.7c-0.5,0-43.8-0.3-67.4-44.3c1.2-0.3,2.4-0.4,3.4-0.5l0.1,0l0,0c1.2-0.6,1.1-0.9,1.1-1    c-0.1-0.4-0.6-0.4-1.2-0.4c-0.7,0-2.1,0.1-3.8,0.3l-2.1,0.3c-3.2,0.6-6,1.6-8.1,2.8c-3.2,1.9-4.9,3.1-7.2,4.7l-5,3.5    c-5.7,3.9-12.7,6.5-14.3,6.7c-0.2,0-0.3,0-0.4-0.1c-0.2-0.4,0.4-1.7,0.9-2.3l0.1-0.1v-0.1c0.1-0.6,0.2-1.4-0.3-1.6    c-0.4-0.2-0.8,0.2-1.1,0.7c-1.4,1.9-2.5,3.8-0.3,7.6l0.1,0.2c2.2,3.9,3.3,5.9,1.8,6.8c-3.5,2.1-6.3,0.4-7.7-0.8c0,0-3-2.7-5.2-5.2    c-2.3-2.6-8.8-7.1-10.2-7.5c-0.7-0.2-1-0.3-1.2-0.1c-0.2,0.2,0,0.4,0.4,0.9l0.3,0.4c0.4,0.5,0.5,1,0.4,1.2c-0.1,0.1-0.4,0.2-0.8,0    l-0.8-0.2c-2-0.4-6.6-1.4-13.9-6.3c-1-0.5-3.4-1.5-4-1c-0.3,0.3-0.5,0.4-0.5,0.7c0,0.3,0.3,0.4,1.3,0.9c0.8,0.4,1.2,0.8,1.2,1    c0,0.1-0.2,0.2-0.5,0.3c-0.9,0.2-2,0.5-3.3,1l-2.7,0.9c-1.7,0.5-4.7,0.9-5.6-0.2c-0.4-0.5-0.4-1.4,0.3-2.6c0-0.1,1.9-3.3,3.9-4.4    c1.6-0.8,1.7-2.2,1.7-3.1c0-0.3,0-0.6,0.1-0.7c0.2-0.3,0.5-0.6,1-0.7c0.7-0.1,1.6,0.2,2.7,1c1.9,1.4,2.4,1.5,2.7,1.3    c0.3-0.2,0.1-0.7-0.2-1.2c-0.3-0.6-3.5-5.8-11-4.7l-4.2,0.7c-3.9,0.7-5.6,1-6.6-0.8c-0.9-1.6,1.8-3.7,5-6l1.5-1.1l3.8-2.9    c0,0,1.7-1.4,3-1.3c0.4,0,0.7,0.2,1,0.5l0.5,0.4l0.1,0.1c1.2,1.5,2.8,3,2.8,3l0.1,0.1l0.7-0.1l-0.2-0.3c-0.1-0.1-1.4-2.9-2.5-4.5    c-1.1-1.6-5.5-5.4-11.3-7.5c-3.1-1.1-6-2.4-5.9-3.8c0-0.3,0.4-0.7,1-1c2.4-1.3,9.2-2.2,19.8,2.8c15.7,7.4,26.4,11.8,26.5,11.9    c0.1,0,2,0.9,4.5,1.5c2,0.4,3.7,0.6,5.3,0.5c1-0.1,1.1-0.3,1.1-0.5c0-0.4-0.4-0.5-0.6-0.5c0,0-2.7-0.9-3.7-1.3    c1.1-1,2.5-2.2,4.4-3.7c2.5-2,5.6-4.5,8.8-7.5c7.9-7.1,10.8-10.6,14.4-17.3c2.9-5.5,8.1-8.6,9.6-9.2c3,3.4,5.7,5.6,5.7,5.6    c1.3,1,1.8,0.7,2,0.6l0.2-0.2l-0.2-0.2c-0.1-0.1-11.9-11.7-14-22.3c-1.5-7.5,0.9-15.1,6.9-22.2c5.8-6.8,10.1-12.3,13.1-21.7    c2.5-8,5.6-13.9,9.1-17.4c0.7-0.7,3.2-3,8-4.9c2.4-1,5.1-1.8,7.7-2.2c2.9-0.5,5.3-0.7,8.1-0.5c0.3,0,0.7,0,0.8-0.3    c0-0.1,0.1-0.4-0.9-0.8l-0.1,0l-3.8-0.4c-0.3-0.1-0.9-0.4-1-0.7c-0.1-0.2,0-0.3,0.2-0.5c1.1-1,9.4-6.9,13.8-8    c3.7-0.9,7.8-1.4,10.2,2.7l1.3,2.4c2,3.8,3.7,7,10.4,9.3l0.1,0h0.1c0.2,0,0.7-0.1,0.8-0.5c0-0.1,0-0.2,0-0.2    c-0.1-0.3-0.3-0.5-0.4-0.5c-1.3-0.9-1.7-1.4-1.7-1.5c0,0,0,0,0,0l0.6-0.3c1.1-0.6,3.8-2.2,4.6-1.9c1,0.4,1.4,1.4,0.9,3    c-0.8,2.9-2.7,4.5-5.8,4.8l-2.1,0.2c-3,0.3-5.6,0.5-6.9,1.4c-1.1,0.7-2.3,2-3,2.8c-2.4-2.6-5-4.2-5.1-4.3l-0.1-0.1l-0.1,0    c-0.2,0.1-0.3,0.1-0.4,0.3c-0.2,0.6,1,2.1,1.6,3c0.1,0.1,6,5.7,5.9,12.3l-0.1,2.4c-0.3,7.8-0.4,12.6,4.5,19.8    c5.5,8.1,11,17.7,6,29.1c-2.1,4.8-4.2,8.5-6.2,11.1c-0.7,0.9-1.4,1.6-2.1,2.2c-0.4,0.4-0.5,0.7-0.3,0.9c0.2,0.3,0.6,0.1,1.3-0.4    l0.3-0.2c1.5-0.9,5.1-2.9,9.4-13.4c1.3-3.2,1.8-6.3,1.6-9.8c0.4,0,1.6-0.1,1.6-0.1c8.1-0.5,18.2-1.2,33.9,8.3l0.1,0.1l2-0.9    l-0.3-0.3c-0.1-0.1-12.2-11.7-37.1-9.4c-0.1,0-0.2,0-0.3-0.1c-0.1-0.5-0.1-0.9-0.2-1.4c-1.2-5.9-4.4-11.3-8.1-17.3    c-2.2-3.5-3.3-6.2-3.8-8.7c-0.5-2.6-0.4-4.9-0.2-7.8c0.1-1.6,0.2-3.4,0.2-5.5c0-0.9-0.1-1.8-0.3-2.6c-0.3-1.6-0.9-3.1-1.8-4.6    c0.2-0.9,0.9-2.3,1.6-2.8c1.7-1.1,4.2-1.9,6.6-2c2.4-0.1,6.4-1.2,7.7-2.8l0.2-0.3c1.2-1.5,2.8-3.4,1.9-6.4c-0.4-1.5-1.5-3.2-4-2.7    c-0.7,0.1-3.4,1.4-4.5,2c-0.8,0.5-1.2,0.9-1.4,1.1c-0.6-0.3-2.9-1.8-4.6-5.1c-0.1-0.2-2.2-4.1-3.5-5.8c-2.2-2.9-5.4-3.6-10.6-2.2    c-3.7,1-7.5,2.9-12.2,6.3l-2.5,1.7c-0.8,0.6-0.8,0.6-1.1,0.9l-0.2,0.2c-0.9,1-1.3,1.8-1.2,2.5c0,0,0,0.1,0,0.1    c0,0.1,0.1,0.2,0.1,0.3c-10.2,0.9-15.9,5.2-18.5,7.7c-3.6,3.6-6.8,9.7-9.4,17.9c-3.1,9.8-7.6,15.2-12.9,21.3    c-5.5,6.5-8.9,13.1-7.1,24.1c0,0.2,0.1,0.5,0.1,0.7c0.8,4.2,3.2,8.7,7.1,13.5c-1.9,0.9-6.5,3.8-9.5,8.9l-0.1,0.1    c-3.8,6.4-6.1,10.3-14.1,17.5c-3.5,3.2-6.8,5.9-9.4,8c-2.4,2-4.1,3.4-4.9,4.3c-6.6-2.4-16.8-6.5-28.1-12.1    c-16.8-8.3-24.4-4.4-26.1-1.2c-0.3,0.6-0.4,1.2-0.3,1.8c0,0.1,0.1,0.3,0.1,0.4c0.5,1.3,2.2,2.4,5.3,3.6c3.2,1.2,7.4,3,10,5.2    c-1.2,0.8-5.2,3.6-7.9,5.9c-2.7,2.3-6.2,5.4-5.7,7.9c0.1,0.3,0.2,0.6,0.3,0.8c1.2,1.9,3,2,4.1,2h0.1c0.4,0,1.5-0.2,2.9-0.4    c2.2-0.4,5.2-1,6.9-0.8c0,0,1.5,0.2,2.2,0.3c-0.4,0.5-0.9,1.4-0.9,2.7c0,0.7-0.6,1.2-1.5,1.9c-0.9,0.7-2.1,1.6-3,3.3    c-1.3,2.3-2.1,3.8-1.8,5.1c0.1,0.5,0.3,1,0.8,1.4c1.4,1.5,3.4,1.9,6.1,1.2l7.8-2.3l1.3-0.6c0.9-0.5,1.6-0.8,2.5-0.3    c1.4,1,4,2.4,7.8,3.9c4.4,1.8,7.2,2.3,8.7,1.6c0,0,0.5-0.2,0.7-0.3c0.7,0.4,2.4,1.5,3,2.2l1.2,1.3c1.4,1.5,3.3,3.6,4.2,4.4    c1.3,1.1,4.5,3.4,6.4,4c2.4,0.7,5.5-0.1,6.9-0.9C68.9,177.9,69.4,177.2,69.6,176.3"/>
		<polygon fill="#FF0000" points="250.7,104.2 101.8,202.5 81,171.1 230,72.8   "/>
		<path d="M287.7,163.1c2.1,0,3.8,1.7,3.8,3.9c0,2.2-1.7,3.9-3.9,3.9c-2.1,0-3.9-1.7-3.9-3.9C283.8,164.8,285.5,163.1,287.7,163.1    L287.7,163.1 M287.6,163.7c-1.7,0-3.1,1.5-3.1,3.3c0,1.9,1.4,3.3,3.2,3.3c1.7,0,3.1-1.5,3.1-3.3    C290.8,165.2,289.4,163.7,287.6,163.7L287.6,163.7z M286.9,169.3h-0.7v-4.4c0.4-0.1,0.7-0.1,1.2-0.1c0.6,0,1.1,0.1,1.3,0.3    c0.3,0.2,0.4,0.5,0.4,0.9c0,0.6-0.4,0.9-0.9,1v0.1c0.4,0.1,0.6,0.4,0.7,1.1c0.1,0.7,0.2,0.9,0.3,1.1h-0.7    c-0.1-0.2-0.2-0.6-0.3-1.1c-0.1-0.5-0.4-0.8-1-0.8h-0.5V169.3z M286.9,166.8h0.5c0.6,0,1.1-0.2,1.1-0.7c0-0.4-0.3-0.8-1.1-0.8    c-0.2,0-0.4,0-0.5,0V166.8z"/>
	</g>
</g>
</svg>
